<?xml version="1.0" encoding="UTF-8"?>
<svg id="Layer_1" data-name="Layer 1" xmlns="http://www.w3.org/2000/svg" width="1024" height="1024" viewBox="0 0 1024 1024">
  <defs>
    <style>
      .cls-1 {
        fill: #fff;
      }

      .cls-1, .cls-2, .cls-3 {
        stroke-width: 0px;
      }

      .cls-2 {
        fill: #ff4633;
      }

      .cls-3 {
        fill: #9099a4;
      }
    </style>
  </defs>
  <g>
    <g>
      <path class="cls-1" d="m490.3,282.9v256.5c0,10.9-2.5,21.3-6.9,30.5h0c-7.6,7.3-16.4,13.3-26.2,17.6,10.6-9.4,17.2-23.1,17.2-38.3v-285.6c0-21.8-13.6-40.5-32.8-47.8,28.3,9.1,48.7,35.7,48.7,67Z"/>
      <polygon class="cls-2" points="357.7 279.5 357.7 549 344.5 549 344.5 272.3 357.7 279.5"/>
      <path class="cls-2" d="m457.2,587.6c-9,8-21,12.9-34,12.9h-14.2c-15.1,0-28.7-6.6-38.1-17h-65.2v-324l-19.2,20.8v329.6h133.5c28,0,52.1-16.3,63.5-39.9-7.6,7.3-16.4,13.3-26.2,17.6Z"/>
      <path class="cls-2" d="m357.7,243.3h-30.1v.3l25.9,14.2h66.2v269.3c0,4-1.1,7.8-3,11.1l3,2.5,15.8,13.2V243.3h-77.7Z"/>
      <path class="cls-1" d="m416.3,212.4h-129.9v67.8l19.2-20.8v324h110.7c23.6,0,42.8-19.1,42.8-42.8V255.2c0-23.6-19.1-42.8-42.8-42.8Zm19,341.4l-15.8-13.2-3-2.5c-2,3.4-4.8,6.2-8.3,8.1-3.2,1.8-6.8,2.8-10.7,2.8h-70.2V243.3h107.8v310.6Z"/>
    </g>
    <g>
      <path class="cls-2" d="m557.4,369.8l-12.2,15.8c.6.6,1.3,1.2,2,1.8l74.7,57.6,24.9,19.2,12.7,9.8,9.2,7.1v63.7l16.1,12.8v-89.5l-127.5-98.3Z"/>
      <path class="cls-1" d="m708.5,349.3v-109.3c0-15.2-12.3-27.5-27.5-27.5h-85.4c-31.3,0-56.7,25.4-56.7,56.7v101.3c0,5.7,2.3,11.2,6.3,15.2l12.2-15.8,127.5,98.3v89.5l-16.1-12.8h-73.7v-57.5c-20.2-4.6-39.1-12.6-56.2-23.2v145.7h1.9l27.2-27.2h110.6c16.5,0,29.9-13.4,29.9-29.9v-96.5c0-6.6-3.1-12.9-8.4-17l-105.1-81.1v-100.1h73.7v80c13.8,2.4,27,6.2,39.7,11.2Z"/>
      <path class="cls-2" d="m714.7,583.8c-1.9,2.4-3.9,4.6-6.2,6.6-7.9,7-18.2,11.3-29.5,11.7h0c-.2,0-.5,0-.7,0-.2,0-.5,0-.7,0s-.5,0-.7,0c-.2,0-.5,0-.7,0h0c-7.6-.1-14.9-1.2-22-3.2h0c-11.7-3.2-22.4-8.8-31.5-16.3h-54.6l-27.2,27.2h134.7c26.4,0,48.9-16.4,57.9-39.6-5.7,5.1-12,9.7-18.7,13.6Z"/>
      <path class="cls-1" d="m737.6,464.8v83c0,7.9-1.5,15.5-4.2,22.4-5.7,5.1-12,9.7-18.7,13.6.3-.4.6-.8.8-1.1,5.6-7.7,8.8-17.2,8.8-27.4v-97.4c0-10.5-4.5-20.6-12.4-27.6l-3.5-3.1-68.3-52.6-28.8-22.2h6.3c3.8,0,7.6,1.3,10.6,3.6l22.6,17.4,57.7,44.4,9.6,7.4c12.3,9.5,19.5,24.1,19.5,39.6Z"/>
      <path class="cls-2" d="m595,244.2h-18.4v132.4l18.4-18.4v-100.3h73.7v80.2c5.5.9,10.9,2.1,16.2,3.4v-97.3h-89.9Z"/>
      <path class="cls-3" d="m731,353.6v-21.2h-6.2v4.7c0,4.5-3.6,8.2-8.2,8.2s-7-2.6-7.9-6c-.2-.7-.3-1.4-.3-2.1v12.2c0,0,.2,0,.3.1.9.4,1.8.7,2.6,1.1.1,0,.3.1.4.2.9.4,1.7.8,2.5,1.1,1.8.8,3.7,1.7,5.5,2.6.9.4,1.8.9,2.7,1.4.8.4,1,.5,1.8,1,2.6,1.4,2.7,1.4,3.3,1.7.9.5,2.1,1.4,3.3,2.8.2-.1-.2-7.7,0-7.8Z"/>
      <path class="cls-1" d="m727.8,226.6s0,0,0,0c-6-2.9-12.5-5-19.3-6.2-2.3-.4-4.6-.7-7-.8,2.5,1.1,4.8,2.4,7,3.9,9.9,6.9,16.3,18.4,16.3,31.4v77.6h6.2v-104.2c-1-.6-2.1-1.1-3.2-1.6Z"/>
    </g>
  </g>
  <g>
    <path class="cls-2" d="m59.7,666.8h918.5v130.9c0,7.7-6.2,13.9-13.9,13.9H45.8v-130.9c0-7.7,6.2-13.9,13.9-13.9Z"/>
    <g>
      <path class="cls-1" d="m102.3,774.2v-68.4h12.9v68.4h-12.9Zm6.5,0v-12.4h16.4c4.2,0,7.5-1,9.8-3.1s3.5-4.9,3.5-8.6v-20.1c0-3.7-1.2-6.6-3.5-8.7-2.3-2-5.6-3.1-9.8-3.1h-16.4v-12.4h16.1c8.6,0,15.2,2.1,19.9,6.4,4.7,4.3,7,10.3,7,18.1v19.4c0,4.9-1,9.1-3,12.8-2,3.7-5,6.6-9,8.6-4,2.1-9,3.1-15,3.1h-16.1Z"/>
      <path class="cls-1" d="m164.6,774.2v-68.4h12.9v68.4h-12.9Zm4.7-56v-12.4h41.2v12.4h-41.2Zm0,28.2v-12.4h36v12.4h-36Zm0,27.8v-12.4h41.2v12.4h-41.2Z"/>
      <path class="cls-1" d="m222.2,774.2v-68.4h12.9v68.4h-12.9Zm5.6,0v-12.4h21.8c2.9,0,5.2-.7,6.8-2.1,1.6-1.4,2.4-3.4,2.4-6h0c0-2.7-.8-4.8-2.4-6.2-1.6-1.4-3.9-2.1-6.8-2.1h-21.8v-12.4h21.8c2.7,0,4.7-.7,6.2-2s2.2-3.2,2.2-5.7-.7-3.9-2.2-5.2-3.5-1.8-6.2-1.8h-21.8v-12.4h22.3c6.6,0,11.8,1.6,15.5,4.8,3.7,3.2,5.5,7.8,5.5,13.7s-1.2,7.3-3.5,9.9-5.6,4.2-9.9,5c4.5.6,8.1,2.4,10.6,5.2,2.5,2.8,3.7,6.5,3.7,11.1h0c0,6.1-1.8,10.7-5.5,13.9s-8.8,4.9-15.5,4.9h-23.1Z"/>
      <path class="cls-1" d="m276.4,774.2l26.2-68.4h8.2l26.2,68.4h-13.9l-16.4-46.7-16.4,46.7h-13.9Zm12.6-11v-12.4h36v12.4h-36Z"/>
      <path class="cls-1" d="m334.1,718.2v-12.4h50.2v12.4h-50.2Zm18.6,56v-62.8h12.9v62.8h-12.9Z"/>
      <path class="cls-1" d="m404.2,705.7v68.4h-13.4v-68.4h13.4Z"/>
      <path class="cls-1" d="m418.3,774.1v-68.4h15.8l25.5,52.4-1.1,1.2v-53.6h12.3v68.4h-15.9l-25.4-51.6,1.1-1.2v52.8h-12.3Z"/>
      <path class="cls-1" d="m510.7,735.9h23.7v13.4c0,5.1-1,9.6-3.1,13.5s-5,6.8-8.7,8.9c-3.7,2.1-8.1,3.2-13.1,3.2s-9.5-1-13.2-3c-3.8-2-6.7-4.8-8.8-8.4-2.1-3.6-3.1-7.8-3.1-12.7v-20.2c0-5.1,1-9.6,3.1-13.5s5-6.8,8.7-8.9c3.7-2.1,8.1-3.2,13.1-3.2s7.9.8,11.3,2.5c3.4,1.7,6.3,4.1,8.6,7.1,2.3,3,3.9,6.6,4.7,10.7h-13.9c-.7-2.2-2.1-3.9-4.1-5.2-2.1-1.2-4.2-1.8-6.6-1.8-3.5,0-6.3,1.1-8.4,3.3-2.1,2.2-3.2,5.2-3.2,8.8v20.2c0,3.2,1.1,5.8,3.2,7.8,2.2,2,5,2.9,8.6,2.9s6.3-1.1,8.4-3.2c2.1-2.1,3.2-5.1,3.2-8.9v-1.1h-10.4v-12.4Z"/>
      <path class="cls-1" d="m595.5,774.9c-3.3,0-6.5-.3-9.6-1-3.1-.7-6-1.6-8.8-2.9-2.7-1.3-5.2-2.8-7.4-4.6l6-10.6c2.6,2.2,5.7,3.8,9.1,5,3.5,1.2,7,1.8,10.6,1.8s7.5-.7,9.8-2.1c2.3-1.4,3.5-3.4,3.5-6h0c0-2-.6-3.5-1.7-4.6-1.2-1.1-2.7-1.8-4.6-2.3-1.9-.5-4-.9-6.2-1.3-2.7-.4-5.4-.9-8.1-1.5-2.7-.6-5.2-1.6-7.5-2.9-2.3-1.3-4.1-3.2-5.5-5.7-1.4-2.5-2.1-5.8-2.1-9.9h0c0-6.7,2.2-11.9,6.6-15.6,4.4-3.7,10.6-5.5,18.6-5.5s7.5.6,11.3,1.9,7.4,3,10.7,5.3l-5.5,10.9c-2.6-1.9-5.4-3.3-8.3-4.3-2.9-1-5.6-1.5-8.3-1.5-4,0-7,.7-9.2,2-2.2,1.3-3.2,3.1-3.2,5.5h0c0,2.2.6,3.9,1.9,5,1.3,1.1,3,2,5,2.5s4.3,1.1,6.7,1.5c2.6.5,5.3,1.1,7.9,1.9,2.6.7,5,1.8,7.2,3.2,2.2,1.4,3.9,3.3,5.2,5.7,1.3,2.4,1.9,5.6,1.9,9.4h0c0,6.7-2.3,11.8-6.8,15.4-4.5,3.6-11,5.4-19.2,5.4Z"/>
      <path class="cls-1" d="m655,774.9c-5,0-9.4-1-13.2-3.1-3.7-2.1-6.7-5-8.7-8.8-2.1-3.8-3.1-8.2-3.1-13.3v-19.4c0-5.1,1-9.5,3.1-13.3s5-6.7,8.7-8.8c3.7-2.1,8.1-3.1,13.2-3.1s9.4,1,13.2,3.1c3.7,2.1,6.7,5,8.7,8.8s3.1,8.2,3.1,13.3v19.4c0,5.1-1,9.5-3.1,13.3-2.1,3.8-5,6.7-8.7,8.8-3.7,2.1-8.1,3.1-13.2,3.1Zm0-12.9c3.5,0,6.3-1.1,8.4-3.3,2.1-2.2,3.2-5.1,3.2-8.7v-20c0-3.6-1.1-6.5-3.2-8.7-2.1-2.2-4.9-3.3-8.4-3.3s-6.3,1.1-8.4,3.3c-2.1,2.2-3.2,5.1-3.2,8.7v20c0,3.6,1.1,6.5,3.2,8.7,2.1,2.2,4.9,3.3,8.4,3.3Z"/>
      <path class="cls-1" d="m715.1,774.9c-5.2,0-9.7-1-13.4-3-3.7-2-6.5-4.9-8.4-8.7-1.9-3.8-2.9-8.4-2.9-13.8v-18.8c0-5.4,1-10,2.9-13.8,1.9-3.8,4.8-6.7,8.4-8.7,3.7-2,8.1-3,13.4-3s8.2.9,11.6,2.8c3.4,1.9,6.2,4.5,8.4,8,2.2,3.5,3.7,7.8,4.6,12.8h-13.4c-.5-2.3-1.3-4.2-2.3-5.8s-2.3-2.8-3.8-3.6c-1.5-.8-3.2-1.3-5-1.3-3.6,0-6.4,1.1-8.4,3.3-2,2.2-3,5.3-3,9.3v18.8c0,4,1,7.1,3,9.3,2,2.2,4.8,3.3,8.4,3.3s5.2-.9,7.2-2.8c1.9-1.9,3.3-4.5,4-7.9h13.4c-.9,5-2.4,9.2-4.6,12.8-2.2,3.5-5,6.2-8.4,8.1-3.4,1.9-7.2,2.8-11.5,2.8Z"/>
      <path class="cls-1" d="m762.8,705.7v68.4h-13.4v-68.4h13.4Z"/>
      <path class="cls-1" d="m776.9,774.2v-68.4h12.9v68.4h-12.9Zm4.7-56v-12.4h41.2v12.4h-41.2Zm0,28.2v-12.4h36v12.4h-36Zm0,27.8v-12.4h41.2v12.4h-41.2Z"/>
      <path class="cls-1" d="m827,718.2v-12.4h50.2v12.4h-50.2Zm18.6,56v-62.8h12.9v62.8h-12.9Z"/>
      <path class="cls-1" d="m931.8,705.7l-20.1,42v26.4h-12.9v-26.4l-20.1-42h13.5l13.1,29.5,13.1-29.5h13.5Z"/>
    </g>
  </g>
</svg>