<?xml version="1.0" encoding="UTF-8"?>
<svg id="Layer_1" data-name="Layer 1" xmlns="http://www.w3.org/2000/svg" width="1224" height="1024" viewBox="0 0 1224 1024">
  <defs>
    <style>
      .cls-1 {
        fill: #fff;
      }

      .cls-1, .cls-2 {
        stroke-width: 0px;
      }

      .cls-2 {
        fill: #ff4633;
      }
    </style>
  </defs>
  <g>
    <polygon class="cls-2" points="726.1 408 695.5 447.8 1006.5 688.2 1006.5 848.4 1046.9 880.6 1046.9 794.2 1046.9 655.4 726.1 408"/>
    <path class="cls-2" d="m1122.1,946.4c-4.7,6.1-9.9,11.6-15.6,16.7-19.9,17.6-45.8,29.4-74.2,29.4s-62.8-8-62.8-8h0c-29.4-8.1-56.2-22.2-79.3-40.9h-137.3s-73.3,68.5-73.3,68.5h343.8c66.4,0,123-41.4,145.7-99.7-14.4,12.9-30.1,24.4-47,34.1Z"/>
    <path class="cls-1" d="m1179.6,646.9v208.9c0,19.9-3.7,39-10.5,56.5-14.4,12.9-30.1,24.4-47,34.1.7-1,1.4-1.9,2.1-2.9,14-19.4,22.3-43.2,22.3-68.9v-245c0-26.5-11.4-51.8-31.2-69.4l-8.8-7.9-172-132.3-72.5-55.8h15.8c9.6,0,19.1,3.2,26.7,9.1l56.8,43.7,145.2,111.7,24.1,18.5c30.9,23.8,49.1,60.6,49.1,99.6Z"/>
    <path class="cls-2" d="m774.8,91.8v333.2l46.2-46.2V126.3h185.5v201.9c13.7,2.4,27.3,5.4,40.7,8.9V91.8h-272.4Z"/>
    <path class="cls-1" d="m1104.1,357.9c22,9.3,41.7,19.2,58.9,29,.5-.3-.5-19.4,0-19.6V51.8c-2.6-1.4-5.3-2.8-7.9-4.1,0,0,0,0,0,0-15.1-7.4-31.4-12.7-48.5-15.6-5.8-1-11.7-1.7-17.6-2.1,6.2,2.7,12.1,6,17.6,9.8,24.8,17.5,41,46.3,41,79v207.1c0,11.3-9.2,20.5-20.5,20.5s-17.5-6.4-19.8-15.2c-.5-1.7-.7-3.4-.7-5.2V81.2c0-38.3-31-69.2-69.2-69.2h-215c-78.8,0-142.7,63.9-142.7,142.7v254.9c0,14.4,5.8,28.1,15.9,38.2l30.7-39.8,320.7,247.4v225.2s-40.4-32.3-40.4-32.3h-185.5v-144.7c-50.8-11.7-98.4-31.6-141.4-58.3v366.6l73.3-68.5h278.4c41.5,0,75.2-33.7,75.2-75.2v-242.9c0-16.7-7.8-32.5-21-42.8l-264.5-204-46.2,46.2V91.8h272.4v245.2c17.6,5.4,36.7,12.2,56.9,20.8Z"/>
  </g>
  <g>
    <path class="cls-1" d="m557.5,189.2v645.5c0,27.5-6.3,53.6-17.5,76.8h0c-19.1,18.4-41.4,33.4-65.8,44.4,26.6-23.6,43.3-58.1,43.3-96.4V141c0-54.9-34.3-101.8-82.6-120.4,71.2,23,122.6,89.8,122.6,168.6Z"/>
    <polygon class="cls-2" points="223.7 180.8 223.7 858.9 190.6 858.9 190.6 162.6 223.7 180.8"/>
    <path class="cls-2" d="m474.2,956c-22.8,20.2-52.8,32.6-85.7,32.6h-35.8c-38.1,0-72.3-16.5-95.9-42.7H92.7V130.5l-48.3,52.2v829.3h335.8c70.3,0,131.1-41,159.8-100.4-19.1,18.3-41.4,33.4-65.8,44.4Z"/>
    <path class="cls-2" d="m223.7,89.6h-75.9v.6l65.1,35.8h166.6v677.7c0,10.2-2.7,19.7-7.6,27.9l7.6,6.3,39.6,33.2V89.6h-195.5Z"/>
    <path class="cls-1" d="m371.3,12H44.4v170.7l48.3-52.2v815.3h278.6c59.4,0,107.6-48.2,107.6-107.6V119.6c0-59.4-48.2-107.6-107.6-107.6Zm47.9,859.1l-39.6-33.2-7.6-6.3c-5,8.5-12.2,15.6-20.8,20.4-7.9,4.4-17.1,7-26.8,7h-176.5V89.6h271.4v781.5Z"/>
  </g>
</svg>