<?xml version="1.0" encoding="UTF-8"?>
<svg id="Layer_1" data-name="Layer 1" xmlns="http://www.w3.org/2000/svg" width="1224" height="1024" viewBox="0 0 1224 1024">
  <defs>
    <style>
      .cls-1 {
        fill: #c43131;
      }

      .cls-1, .cls-2, .cls-3, .cls-4, .cls-5 {
        stroke-width: 0px;
      }

      .cls-2 {
        fill: #d83232;
      }

      .cls-3 {
        fill: #fff;
      }

      .cls-4 {
        fill: #ff6969;
      }

      .cls-5 {
        fill: #9099a4;
      }
    </style>
  </defs>
  <g>
    <path class="cls-3" d="m557.1,186.6v650.7c0,27.8-6.3,54-17.6,77.5h0c-19.3,18.5-41.7,33.7-66.4,44.8,26.8-23.8,43.7-58.5,43.7-97.2V138c0-55.3-34.6-102.6-83.3-121.3,71.7,23.2,123.6,90.5,123.6,170Z"/>
    <polygon class="cls-2" points="220.6 178.1 220.6 861.7 187.2 861.7 187.2 159.8 220.6 178.1"/>
    <path class="cls-2" d="m473.1,959.5c-22.9,20.4-53.2,32.8-86.3,32.8h-36.1c-38.4,0-72.9-16.6-96.7-43.1H88.5V200.2l-48.6,52.6v763.2h338.5c70.9,0,132.2-41.3,161.1-101.2-19.3,18.5-41.7,33.7-66.4,44.7Z"/>
    <polygon class="cls-4" points="88.5 127.4 88.5 200.2 39.9 252.8 39.9 180.1 88.5 127.4"/>
    <path class="cls-2" d="m220.6,86.2h-76.5v.7l65.6,36.1h167.9v683.1c0,10.2-2.8,19.8-7.6,28.1l7.6,6.4,40,33.4V86.2h-197.1Z"/>
    <path class="cls-3" d="m369.4,8H39.9v172.1l48.6-52.7v821.9h280.9c59.9,0,108.4-48.6,108.4-108.4V116.4c0-59.9-48.6-108.4-108.4-108.4Zm48.3,866l-40-33.4-7.6-6.4c-5,8.6-12.3,15.7-21,20.5-8,4.5-17.2,7-27.1,7h-177.9V86.2h273.5v787.7Z"/>
  </g>
  <g>
    <path class="cls-2" d="m727.1,407.2l-30.9,40.1c1.6,1.6,3.3,3.2,5.2,4.6l189.6,146.2,63.2,48.7,32.1,24.8,23.4,18.1v161.4l40.7,32.5v-227l-323.3-249.4Z"/>
    <path class="cls-2" d="m1173.5,915.5c-22.8,58.8-80,100.5-146.8,100.5h-341.6l69-69h80c40.6,24.7,87.8,39.5,138.3,41.3h0c17.8,5,36.4,7.7,55.7,8.1h.2c.6,0,1.2,0,1.8,0,.6,0,1.2,0,1.8,0s1.2,0,1.8,0c.6,0,1.2,0,1.8,0h.2c28.6-.9,54.7-11.9,74.8-29.6,5.8-5.1,11-10.7,15.7-16.8,17-9.8,32.8-21.4,47.3-34.4Z"/>
    <path class="cls-3" d="m1110.4,355V77.8c0-38.6-31.2-69.8-69.8-69.8h-216.7c-79.4,0-143.8,64.4-143.8,143.8v256.9c0,14.5,5.8,28.4,16,38.5l30.9-40.1,323.3,249.4v227l-40.7-32.5h-187v-145.9c-51.1-11.8-99.1-31.9-142.5-58.7v369.6h4.9l69-69h280.6c41.8,0,75.8-33.9,75.8-75.8v-244.8c0-16.9-7.8-32.8-21.2-43.1l-266.6-205.6V123.9h187v202.8c34.9,6.2,68.6,15.7,100.8,28.3Z"/>
    <path class="cls-1" d="m892.4,947c23.2,18.8,50.3,33.1,79.9,41.3-50.5-1.7-97.7-16.6-138.3-41.3h58.4Z"/>
    <path class="cls-3" d="m1184.1,648v210.6c0,20.1-3.8,39.3-10.6,56.9-14.5,13-30.4,24.6-47.3,34.4.7-1,1.4-1.9,2.1-2.9,14.1-19.5,22.4-43.5,22.4-69.5v-247c0-26.7-11.4-52.2-31.4-69.9l-8.9-7.9-173.3-133.3-73.1-56.3h15.9c9.7,0,19.2,3.2,26.9,9.2l57.2,44.1,146.3,112.6,24.2,18.7c31.2,24,49.5,61.1,49.5,100.4Z"/>
    <path class="cls-2" d="m822.6,88.5h-46.6v335.8l46.6-46.6V123.2h187v203.3c13.9,2.3,27.6,5.2,41,8.7V88.5h-228Z"/>
    <path class="cls-5" d="m1167.4,366.1v-53.7h-15.6v12c0,11.4-9.3,20.7-20.7,20.7s-17.6-6.5-20-15.3c-.5-1.7-.7-3.5-.7-5.3v31c.2.1.5.2.7.3,2.2.9,4.5,1.9,6.7,2.9.3.1.7.3,1,.4,2.2.9,4.3,1.9,6.4,2.9,4.7,2.1,9.3,4.3,13.9,6.6,2.3,1.1,4.6,2.3,6.8,3.5,1.9,1,2.5,1.3,4.6,2.5,6.6,3.5,6.9,3.5,8.4,4.4,2.3,1.3,5.3,3.5,8.5,7.2.5-.3-.5-19.5,0-19.8Z"/>
    <path class="cls-3" d="m1159.4,44s0,0,0,0c-15.2-7.4-31.7-12.8-48.9-15.7-5.8-1-11.8-1.7-17.8-2.1,6.3,2.7,12.2,6,17.8,9.9,25,17.6,41.4,46.7,41.4,79.6v196.8h15.6V48.1c-2.6-1.4-5.3-2.8-8-4.2Z"/>
  </g>
</svg>